# xmcd CD database file
# Copyright (C) 1997 Ti Kan
# 
# Track frame offsets:
#     150
#     12637
#     25525
#     36175
#     48025
#     62622
#     74725
#     92577
#     105550
#     114817
#     125245
#     135542
#     146925
#     158755
#     170762
# 
# Disc length: 2434 seconds
# 
# Revision: 1
# Processed by: cddbd v1.4b41PL1 Copyright (c) Steve Scherf et al.
# Submitted via: DiscPlay 4.0.3
# 
DISCID=cf09800f
DTITLE=Various Artist - Crooners Disk 2
DYEAR=1900
DGENRE=
TTITLE0=Spanish eyes
TTITLE1=I Left My Heart In San Francisco
TTITLE2=Can't Get Used To Loving You
TTITLE3=When The Snow Is On The Roses
TTITLE4=It's Impossible
TTITLE5=Make The World Go Away
TTITLE6=You Gave Me A Mountain
TTITLE7=Moonlight And Roses
TTITLE8=A Little Bitty Tear
TTITLE9=Band Of Gold
TTITLE10=The Impossible Dream
TTITLE11=Hush..Hush, Sweet Charlotte
TTITLE12=Moody River
TTITLE13=Funny Way Of Laughing
TTITLE14=Roses Are Red (My Love)
EXTD=
EXTT0=
EXTT1=
EXTT2=
EXTT3=
EXTT4=
EXTT5=
EXTT6=
EXTT7=
EXTT8=
EXTT9=
EXTT10=
EXTT11=
EXTT12=
EXTT13=
EXTT14=
PLAYORDER=
